<mxfile host="app.diagrams.net" modified="2023-10-09T20:02:18.387Z" agent="Mozilla/5.0 (Windows NT 10.0; Win64; x64) AppleWebKit/537.36 (KHTML, like Gecko) Chrome/114.0.0.0 YaBrowser/23.7.4.971 Yowser/2.5 Safari/537.36" etag="ZGB4qG3xIqkowdSoC4Od" version="22.0.0" type="device">
  <diagram name="Страница — 1" id="awOdxvU8Fqqp0CnhUrcI">
    <mxGraphModel dx="1431" dy="821" grid="1" gridSize="10" guides="1" tooltips="1" connect="1" arrows="1" fold="1" page="1" pageScale="1" pageWidth="827" pageHeight="1169" math="0" shadow="0">
      <root>
        <mxCell id="0" />
        <mxCell id="1" parent="0" />
        <mxCell id="iTpeQLTcBXCF3-lKxVC1-1" value="Администратор" style="rounded=1;whiteSpace=wrap;html=1;" parent="1" vertex="1">
          <mxGeometry x="440" y="80" width="120" height="60" as="geometry" />
        </mxCell>
        <mxCell id="iTpeQLTcBXCF3-lKxVC1-2" value="Пользователь" style="rounded=1;whiteSpace=wrap;html=1;" parent="1" vertex="1">
          <mxGeometry x="120" y="80" width="120" height="60" as="geometry" />
        </mxCell>
        <mxCell id="iTpeQLTcBXCF3-lKxVC1-3" value="" style="endArrow=none;dashed=1;html=1;rounded=0;entryX=0.5;entryY=1;entryDx=0;entryDy=0;" parent="1" target="iTpeQLTcBXCF3-lKxVC1-2" edge="1">
          <mxGeometry width="50" height="50" relative="1" as="geometry">
            <mxPoint x="180" y="600" as="sourcePoint" />
            <mxPoint x="440" y="210" as="targetPoint" />
          </mxGeometry>
        </mxCell>
        <mxCell id="iTpeQLTcBXCF3-lKxVC1-4" value="" style="endArrow=none;dashed=1;html=1;rounded=0;entryX=0.5;entryY=1;entryDx=0;entryDy=0;" parent="1" source="iTpeQLTcBXCF3-lKxVC1-12" target="iTpeQLTcBXCF3-lKxVC1-1" edge="1">
          <mxGeometry width="50" height="50" relative="1" as="geometry">
            <mxPoint x="500" y="520" as="sourcePoint" />
            <mxPoint x="440" y="210" as="targetPoint" />
          </mxGeometry>
        </mxCell>
        <mxCell id="iTpeQLTcBXCF3-lKxVC1-5" value="" style="rounded=0;whiteSpace=wrap;html=1;" parent="1" vertex="1">
          <mxGeometry x="160" y="200" width="40" height="80" as="geometry" />
        </mxCell>
        <mxCell id="iTpeQLTcBXCF3-lKxVC1-6" value="" style="rounded=0;whiteSpace=wrap;html=1;" parent="1" vertex="1">
          <mxGeometry x="480" y="200" width="40" height="80" as="geometry" />
        </mxCell>
        <mxCell id="iTpeQLTcBXCF3-lKxVC1-7" value="" style="endArrow=classic;html=1;rounded=0;exitX=1;exitY=0;exitDx=0;exitDy=0;entryX=0;entryY=0;entryDx=0;entryDy=0;" parent="1" source="iTpeQLTcBXCF3-lKxVC1-5" target="iTpeQLTcBXCF3-lKxVC1-6" edge="1">
          <mxGeometry width="50" height="50" relative="1" as="geometry">
            <mxPoint x="390" y="260" as="sourcePoint" />
            <mxPoint x="440" y="210" as="targetPoint" />
          </mxGeometry>
        </mxCell>
        <mxCell id="iTpeQLTcBXCF3-lKxVC1-8" value="" style="endArrow=classic;html=1;rounded=0;entryX=1;entryY=1;entryDx=0;entryDy=0;exitX=0;exitY=1;exitDx=0;exitDy=0;dashed=1;" parent="1" source="iTpeQLTcBXCF3-lKxVC1-6" target="iTpeQLTcBXCF3-lKxVC1-5" edge="1">
          <mxGeometry width="50" height="50" relative="1" as="geometry">
            <mxPoint x="390" y="260" as="sourcePoint" />
            <mxPoint x="440" y="210" as="targetPoint" />
          </mxGeometry>
        </mxCell>
        <mxCell id="iTpeQLTcBXCF3-lKxVC1-9" value="Отправить жалобу" style="text;html=1;strokeColor=none;fillColor=none;align=center;verticalAlign=middle;whiteSpace=wrap;rounded=0;" parent="1" vertex="1">
          <mxGeometry x="280" y="180" width="130" height="30" as="geometry" />
        </mxCell>
        <mxCell id="iTpeQLTcBXCF3-lKxVC1-10" value="Ответить на жалобу" style="text;html=1;strokeColor=none;fillColor=none;align=center;verticalAlign=middle;whiteSpace=wrap;rounded=0;" parent="1" vertex="1">
          <mxGeometry x="284" y="260" width="130" height="30" as="geometry" />
        </mxCell>
        <mxCell id="iTpeQLTcBXCF3-lKxVC1-11" value="Проверить жалобу" style="text;html=1;strokeColor=none;fillColor=none;align=center;verticalAlign=middle;whiteSpace=wrap;rounded=0;" parent="1" vertex="1">
          <mxGeometry x="530" y="340" width="130" height="30" as="geometry" />
        </mxCell>
        <mxCell id="iTpeQLTcBXCF3-lKxVC1-13" value="" style="endArrow=none;dashed=1;html=1;rounded=0;entryX=0.5;entryY=1;entryDx=0;entryDy=0;" parent="1" source="iTpeQLTcBXCF3-lKxVC1-16" target="iTpeQLTcBXCF3-lKxVC1-12" edge="1">
          <mxGeometry width="50" height="50" relative="1" as="geometry">
            <mxPoint x="500" y="600" as="sourcePoint" />
            <mxPoint x="500" y="140" as="targetPoint" />
          </mxGeometry>
        </mxCell>
        <mxCell id="iTpeQLTcBXCF3-lKxVC1-12" value="" style="rounded=0;whiteSpace=wrap;html=1;" parent="1" vertex="1">
          <mxGeometry x="480" y="300" width="40" height="80" as="geometry" />
        </mxCell>
        <mxCell id="iTpeQLTcBXCF3-lKxVC1-14" value="" style="rounded=0;whiteSpace=wrap;html=1;" parent="1" vertex="1">
          <mxGeometry x="480" y="400" width="40" height="80" as="geometry" />
        </mxCell>
        <mxCell id="iTpeQLTcBXCF3-lKxVC1-15" value="" style="endArrow=classic;html=1;rounded=0;exitX=1;exitY=0;exitDx=0;exitDy=0;entryX=1;entryY=0;entryDx=0;entryDy=0;" parent="1" source="iTpeQLTcBXCF3-lKxVC1-12" target="iTpeQLTcBXCF3-lKxVC1-14" edge="1">
          <mxGeometry width="50" height="50" relative="1" as="geometry">
            <mxPoint x="390" y="260" as="sourcePoint" />
            <mxPoint x="440" y="210" as="targetPoint" />
            <Array as="points">
              <mxPoint x="560" y="300" />
              <mxPoint x="560" y="400" />
            </Array>
          </mxGeometry>
        </mxCell>
        <mxCell id="iTpeQLTcBXCF3-lKxVC1-17" value="" style="endArrow=none;dashed=1;html=1;rounded=0;entryX=0.5;entryY=1;entryDx=0;entryDy=0;" parent="1" target="iTpeQLTcBXCF3-lKxVC1-16" edge="1">
          <mxGeometry width="50" height="50" relative="1" as="geometry">
            <mxPoint x="500" y="600" as="sourcePoint" />
            <mxPoint x="500" y="380" as="targetPoint" />
          </mxGeometry>
        </mxCell>
        <mxCell id="iTpeQLTcBXCF3-lKxVC1-16" value="" style="rounded=0;whiteSpace=wrap;html=1;" parent="1" vertex="1">
          <mxGeometry x="480" y="504.5" width="40" height="80" as="geometry" />
        </mxCell>
        <mxCell id="iTpeQLTcBXCF3-lKxVC1-18" value="" style="rounded=0;whiteSpace=wrap;html=1;" parent="1" vertex="1">
          <mxGeometry x="160" y="505" width="40" height="80" as="geometry" />
        </mxCell>
        <mxCell id="iTpeQLTcBXCF3-lKxVC1-20" value="" style="endArrow=classic;html=1;rounded=0;exitX=0;exitY=0;exitDx=0;exitDy=0;entryX=1;entryY=0;entryDx=0;entryDy=0;" parent="1" source="iTpeQLTcBXCF3-lKxVC1-16" target="iTpeQLTcBXCF3-lKxVC1-18" edge="1">
          <mxGeometry width="50" height="50" relative="1" as="geometry">
            <mxPoint x="390" y="350" as="sourcePoint" />
            <mxPoint x="440" y="300" as="targetPoint" />
          </mxGeometry>
        </mxCell>
        <mxCell id="iTpeQLTcBXCF3-lKxVC1-21" value="Принять жалобу" style="text;html=1;strokeColor=none;fillColor=none;align=center;verticalAlign=middle;whiteSpace=wrap;rounded=0;" parent="1" vertex="1">
          <mxGeometry x="270" y="480" width="130" height="30" as="geometry" />
        </mxCell>
        <mxCell id="iTpeQLTcBXCF3-lKxVC1-22" value="Проверка жалоб пользователей" style="text;html=1;strokeColor=none;fillColor=none;align=center;verticalAlign=middle;whiteSpace=wrap;rounded=0;" parent="1" vertex="1">
          <mxGeometry x="225" y="30" width="220" height="30" as="geometry" />
        </mxCell>
        <mxCell id="iTpeQLTcBXCF3-lKxVC1-23" value="Администратор" style="rounded=1;whiteSpace=wrap;html=1;" parent="1" vertex="1">
          <mxGeometry x="450" y="770" width="120" height="60" as="geometry" />
        </mxCell>
        <mxCell id="iTpeQLTcBXCF3-lKxVC1-24" value="Пользователь" style="rounded=1;whiteSpace=wrap;html=1;" parent="1" vertex="1">
          <mxGeometry x="130" y="770" width="120" height="60" as="geometry" />
        </mxCell>
        <mxCell id="iTpeQLTcBXCF3-lKxVC1-25" value="" style="endArrow=none;dashed=1;html=1;rounded=0;entryX=0.5;entryY=1;entryDx=0;entryDy=0;" parent="1" target="iTpeQLTcBXCF3-lKxVC1-24" edge="1">
          <mxGeometry width="50" height="50" relative="1" as="geometry">
            <mxPoint x="190" y="1290" as="sourcePoint" />
            <mxPoint x="450" y="900" as="targetPoint" />
          </mxGeometry>
        </mxCell>
        <mxCell id="iTpeQLTcBXCF3-lKxVC1-26" value="" style="endArrow=none;dashed=1;html=1;rounded=0;entryX=0.5;entryY=1;entryDx=0;entryDy=0;" parent="1" source="iTpeQLTcBXCF3-lKxVC1-35" target="iTpeQLTcBXCF3-lKxVC1-23" edge="1">
          <mxGeometry width="50" height="50" relative="1" as="geometry">
            <mxPoint x="510" y="1210" as="sourcePoint" />
            <mxPoint x="450" y="900" as="targetPoint" />
          </mxGeometry>
        </mxCell>
        <mxCell id="iTpeQLTcBXCF3-lKxVC1-27" value="" style="rounded=0;whiteSpace=wrap;html=1;" parent="1" vertex="1">
          <mxGeometry x="170" y="890" width="40" height="80" as="geometry" />
        </mxCell>
        <mxCell id="iTpeQLTcBXCF3-lKxVC1-28" value="" style="rounded=0;whiteSpace=wrap;html=1;" parent="1" vertex="1">
          <mxGeometry x="490" y="890" width="40" height="80" as="geometry" />
        </mxCell>
        <mxCell id="iTpeQLTcBXCF3-lKxVC1-29" value="" style="endArrow=classic;html=1;rounded=0;exitX=1;exitY=0;exitDx=0;exitDy=0;entryX=0;entryY=0;entryDx=0;entryDy=0;" parent="1" source="iTpeQLTcBXCF3-lKxVC1-27" target="iTpeQLTcBXCF3-lKxVC1-28" edge="1">
          <mxGeometry width="50" height="50" relative="1" as="geometry">
            <mxPoint x="400" y="950" as="sourcePoint" />
            <mxPoint x="450" y="900" as="targetPoint" />
          </mxGeometry>
        </mxCell>
        <mxCell id="iTpeQLTcBXCF3-lKxVC1-30" value="" style="endArrow=classic;html=1;rounded=0;entryX=1;entryY=1;entryDx=0;entryDy=0;exitX=0;exitY=1;exitDx=0;exitDy=0;dashed=1;" parent="1" source="iTpeQLTcBXCF3-lKxVC1-28" target="iTpeQLTcBXCF3-lKxVC1-27" edge="1">
          <mxGeometry width="50" height="50" relative="1" as="geometry">
            <mxPoint x="400" y="950" as="sourcePoint" />
            <mxPoint x="450" y="900" as="targetPoint" />
          </mxGeometry>
        </mxCell>
        <mxCell id="iTpeQLTcBXCF3-lKxVC1-31" value="Отправить рецензию" style="text;html=1;strokeColor=none;fillColor=none;align=center;verticalAlign=middle;whiteSpace=wrap;rounded=0;" parent="1" vertex="1">
          <mxGeometry x="290" y="870" width="130" height="30" as="geometry" />
        </mxCell>
        <mxCell id="iTpeQLTcBXCF3-lKxVC1-32" value="Ответить на рецензию" style="text;html=1;strokeColor=none;fillColor=none;align=center;verticalAlign=middle;whiteSpace=wrap;rounded=0;" parent="1" vertex="1">
          <mxGeometry x="294" y="950" width="130" height="30" as="geometry" />
        </mxCell>
        <mxCell id="iTpeQLTcBXCF3-lKxVC1-33" value="Проверить рецензию" style="text;html=1;strokeColor=none;fillColor=none;align=center;verticalAlign=middle;whiteSpace=wrap;rounded=0;" parent="1" vertex="1">
          <mxGeometry x="540" y="1030" width="130" height="30" as="geometry" />
        </mxCell>
        <mxCell id="iTpeQLTcBXCF3-lKxVC1-34" value="" style="endArrow=none;dashed=1;html=1;rounded=0;entryX=0.5;entryY=1;entryDx=0;entryDy=0;" parent="1" source="iTpeQLTcBXCF3-lKxVC1-39" target="iTpeQLTcBXCF3-lKxVC1-35" edge="1">
          <mxGeometry width="50" height="50" relative="1" as="geometry">
            <mxPoint x="510" y="1290" as="sourcePoint" />
            <mxPoint x="510" y="830" as="targetPoint" />
          </mxGeometry>
        </mxCell>
        <mxCell id="iTpeQLTcBXCF3-lKxVC1-35" value="" style="rounded=0;whiteSpace=wrap;html=1;" parent="1" vertex="1">
          <mxGeometry x="490" y="990" width="40" height="80" as="geometry" />
        </mxCell>
        <mxCell id="iTpeQLTcBXCF3-lKxVC1-36" value="" style="rounded=0;whiteSpace=wrap;html=1;" parent="1" vertex="1">
          <mxGeometry x="490" y="1090" width="40" height="80" as="geometry" />
        </mxCell>
        <mxCell id="iTpeQLTcBXCF3-lKxVC1-37" value="" style="endArrow=classic;html=1;rounded=0;exitX=1;exitY=0;exitDx=0;exitDy=0;entryX=1;entryY=0;entryDx=0;entryDy=0;" parent="1" source="iTpeQLTcBXCF3-lKxVC1-35" target="iTpeQLTcBXCF3-lKxVC1-36" edge="1">
          <mxGeometry width="50" height="50" relative="1" as="geometry">
            <mxPoint x="400" y="950" as="sourcePoint" />
            <mxPoint x="450" y="900" as="targetPoint" />
            <Array as="points">
              <mxPoint x="570" y="990" />
              <mxPoint x="570" y="1090" />
            </Array>
          </mxGeometry>
        </mxCell>
        <mxCell id="iTpeQLTcBXCF3-lKxVC1-38" value="" style="endArrow=none;dashed=1;html=1;rounded=0;entryX=0.5;entryY=1;entryDx=0;entryDy=0;" parent="1" target="iTpeQLTcBXCF3-lKxVC1-39" edge="1">
          <mxGeometry width="50" height="50" relative="1" as="geometry">
            <mxPoint x="510" y="1290" as="sourcePoint" />
            <mxPoint x="510" y="1070" as="targetPoint" />
          </mxGeometry>
        </mxCell>
        <mxCell id="iTpeQLTcBXCF3-lKxVC1-39" value="" style="rounded=0;whiteSpace=wrap;html=1;" parent="1" vertex="1">
          <mxGeometry x="490" y="1194.5" width="40" height="80" as="geometry" />
        </mxCell>
        <mxCell id="iTpeQLTcBXCF3-lKxVC1-40" value="" style="rounded=0;whiteSpace=wrap;html=1;" parent="1" vertex="1">
          <mxGeometry x="170" y="1195" width="40" height="80" as="geometry" />
        </mxCell>
        <mxCell id="iTpeQLTcBXCF3-lKxVC1-41" value="" style="endArrow=classic;html=1;rounded=0;exitX=0;exitY=0;exitDx=0;exitDy=0;entryX=1;entryY=0;entryDx=0;entryDy=0;" parent="1" source="iTpeQLTcBXCF3-lKxVC1-39" target="iTpeQLTcBXCF3-lKxVC1-40" edge="1">
          <mxGeometry width="50" height="50" relative="1" as="geometry">
            <mxPoint x="400" y="1040" as="sourcePoint" />
            <mxPoint x="450" y="990" as="targetPoint" />
          </mxGeometry>
        </mxCell>
        <mxCell id="iTpeQLTcBXCF3-lKxVC1-42" value="Принять рецензию" style="text;html=1;strokeColor=none;fillColor=none;align=center;verticalAlign=middle;whiteSpace=wrap;rounded=0;" parent="1" vertex="1">
          <mxGeometry x="280" y="1170" width="130" height="30" as="geometry" />
        </mxCell>
        <mxCell id="iTpeQLTcBXCF3-lKxVC1-43" value="Проверка рецензии пользователя" style="text;html=1;strokeColor=none;fillColor=none;align=center;verticalAlign=middle;whiteSpace=wrap;rounded=0;" parent="1" vertex="1">
          <mxGeometry x="241.5" y="730" width="215" height="30" as="geometry" />
        </mxCell>
      </root>
    </mxGraphModel>
  </diagram>
</mxfile>
